<svg viewBox="0 0 422.4 127.23" xmlns="http://www.w3.org/2000/svg"><path d="m402.72 88.23a19.16 19.16 0 0 1 -.28 3.93 5.79 5.79 0 0 1 -5.17 4.93c-8.45 1.23-16.91 2.39-25.36 3.63-12.05 1.77-24.06 3.75-36 6.1-6.81 1.35-13.64 2.64-20.31 4.61-2 .58-3.25 0-3.84-1.42a3.24 3.24 0 0 1 1.57-4.09 39.17 39.17 0 0 1 9.68-3.75c15.11-4.37 30.5-7.58 45.84-11 9.84-2.22 19.66-4.55 29.49-6.82a8.09 8.09 0 0 1 2.49-.33 1.74 1.74 0 0 1 1.89 2c.02.7 0 1.45 0 2.21z" fill="#ffd500"/><path d="m115.68 64v14.87c0 .88-.19 1.18-1.11 1.13-1.64-.08-3.28 0-4.92 0-.74 0-.94-.23-.94-1 0-3.63 0-7.27 0-10.91 0-.82-.18-1.08-1-1.07-4.4 0-8.8.06-13.19 0-1 0-1.16.35-1.15 1.22v10.44c0 1.11-.33 1.34-1.34 1.28a41.1 41.1 0 0 0 -4.44 0c-1 .06-1.2-.27-1.19-1.2 0-8.12 0-16.23 0-24.35 0-1.8 0-3.6 0-5.39 0-.72.17-1 .93-1q2.52.09 5 0c.79 0 1 .22 1 1 0 3.44 0 6.88-.05 10.31 0 1.16.37 1.36 1.41 1.35q6.3-.09 12.59 0c1 0 1.43-.17 1.4-1.33-.09-3.44 0-6.88 0-10.32 0-.76.18-1 1-1 1.64.06 3.28.07 4.92 0 .82 0 1.07.19 1.06 1 0 5.08.02 10.03.02 14.97z" fill="#fff"/><path d="m16.94 80.33c-8.32 0-15.4-5.71-16.7-13.48a16.26 16.26 0 0 1 11.94-18.61c6.89-1.78 12.85 0 17.73 5.24.73.78.6 1.15-.3 1.62q-2.28 1.18-4.46 2.56c-.72.46-1.09.35-1.67-.26a9.15 9.15 0 0 0 -11.22-1.55 9.39 9.39 0 0 0 4.67 17.51 8.76 8.76 0 0 0 6.44-2.72 1 1 0 0 1 1.63-.21q2.33 1.47 4.77 2.74c.77.4.69.7.21 1.28a17 17 0 0 1 -13.04 5.88z" fill="#fff"/><path d="m225.53 48.13h12.11c.83 0 1.12.21 1.07 1.06q-.09 2.1 0 4.2c0 .82-.18 1.09-1 1.07-2.48-.06-5 0-7.43 0-1 0-1.28.19-1.27 1.22.05 7.72 0 15.43.05 23.14 0 1-.18 1.34-1.23 1.28a42.79 42.79 0 0 0 -4.67 0c-.92 0-1.13-.25-1.12-1.14 0-7.75 0-15.5 0-23.25 0-1-.23-1.27-1.23-1.24-2.52.08-5 0-7.56 0-.65 0-.9-.13-.88-.84.06-1.51.06-3 0-4.55 0-.75.2-.93.93-.93 4.08 0 8.15-.02 12.23-.02z" fill="#fff"/><path d="m422.14 63.71a2 2 0 0 0 -1.87-1.24 9.64 9.64 0 0 0 -3.95.9 52.85 52.85 0 0 1 -16.43 4.12 42.7 42.7 0 0 1 -11.46-.17c-.8-.14-1.11-.3-.79-1.28 2-6.13 2.59-12.36.59-18.59-1.65-5.12-4.29-9.75-9.33-12.1-7.48-3.5-14.59-2.09-21 2.78-3.88 2.94-5.16 7-4.06 11.71a2 2 0 0 1 -.43 1.95 100.18 100.18 0 0 1 -22.66 20.53 81.21 81.21 0 0 1 -9.66 5.47c.22-.59.36-1 .5-1.3 1.82-4.73 3.61-9.47 5.15-14.3 1.32-4.14 2.75-8.26 2.89-12.68.1-3.35-2.13-5.72-5.12-5.33a22.66 22.66 0 0 0 -4.22.9 11.11 11.11 0 0 0 -7.73 7.53c-1.52 4.87-3.09 9.73-4.62 14.6a3.33 3.33 0 0 1 -1 1.57 22.69 22.69 0 0 1 -12.34 5.92c-8.63 1.11-15.33-2.58-19-9.23a26.18 26.18 0 0 1 -3-13.89 42.06 42.06 0 0 1 6.6-20.65c5.15-8.28 11.65-15.21 20.56-19.57a23.73 23.73 0 0 1 12-2.78c1.65.1 2.15.66 2.26 2.31a12 12 0 0 1 -1 5.37c-2.5 6.24-6.12 11.56-12.09 15a32.27 32.27 0 0 1 -5 2.24 2.8 2.8 0 0 0 -2.13 3.5 4.81 4.81 0 0 0 3.56 3.82 10.58 10.58 0 0 0 5.12.13c11.19-2.43 19-9 22.75-19.8 3.45-9.84-2.45-19-12.7-20.72a32.17 32.17 0 0 0 -17.59 2.34c-15 6.12-26.54 16.23-33.94 30.73-4.33 8.48-5.76 17.35-3.59 26.72 3.51 15.21 18.2 26 36.23 23.6a37 37 0 0 0 8.67-2.35c-.63 1.2-1.15 2.1-1.58 3a2.53 2.53 0 0 1 -1.87 1.53 113.09 113.09 0 0 1 -24.28 3.37c-9.1.4-18.2.73-27.28 1.53a27.16 27.16 0 0 0 -11.41 3.3c-4.39 2.54-6.1 6.37-5.15 11.35a23.44 23.44 0 0 0 14.26 17.9c9.08 4 18.66 4.62 28.3 2.78 12.67-2.41 22.84-9.13 31.05-19a83.54 83.54 0 0 0 11.75-18.86 6.51 6.51 0 0 1 3.08-3.26 108.52 108.52 0 0 0 23.82-16.57c1-1 2-2 3.15-3.15a32.51 32.51 0 0 0 -.32 4.66c.28 5.72 2.29 10.49 7.41 13.57 4.88 2.94 10.08 2.94 15.41 1.6a23.74 23.74 0 0 0 14-9.84 1.78 1.78 0 0 1 2.15-.9 39.54 39.54 0 0 0 4.87.63 46.14 46.14 0 0 0 30.25-7.33 7.23 7.23 0 0 0 2.08-1.93 1.94 1.94 0 0 0 .14-2.14zm-130.2 35.15a39.33 39.33 0 0 1 -26.05 10.54c-4.35.13-8.7.2-13-1a18.35 18.35 0 0 1 -7.17-3.71c-2-1.75-1.79-3.73.64-4.9a22.26 22.26 0 0 1 8.75-1.71 272.47 272.47 0 0 0 29.1-2.42 76.19 76.19 0 0 0 11.68-2.66c.44-.14.89-.26 1.58-.46a32.94 32.94 0 0 1 -5.53 6.32zm81-27.06a13.77 13.77 0 0 1 -6.42 5c-2.52.89-4.33-.09-4.95-2.67-.84-3.51-.16-6.89.95-10.46a43.64 43.64 0 0 0 7.68 5.76c.83.48 1.66 1 2.52 1.38.53.27.55.53.2.99zm4.46-10.2a3.1 3.1 0 0 1 -.22.51 25.12 25.12 0 0 1 -8.08-11.7 13.23 13.23 0 0 1 -1-6.19c.3-2 1.07-2.46 2.93-1.57a9.44 9.44 0 0 1 4.39 4.28 23 23 0 0 1 1.96 14.67z" fill="#ffd400"/><g fill="#fff"><path d="m197.73 74.44c-1.21-1.83-2.41-3.65-3.63-5.48 4.89-2.58 6.63-5.6 6.44-11a9.93 9.93 0 0 0 -9.54-9.81c-5.87-.08-11.75 0-17.62 0-.71 0-.86.24-.85.89v7.91 21.81c0 .94.14 1.36 1.21 1.3a45.47 45.47 0 0 1 4.67 0c.84 0 1.1-.23 1.08-1.07-.05-2.76 0-5.52 0-8.27 0-.94.28-1.15 1.15-1.11q2.34.09 4.68 0a1.63 1.63 0 0 1 1.64.88c1.91 2.94 3.88 5.85 5.81 8.78.3.45.55.8 1.2.79h7.55zm-9.34-10.44c-1.36 0-2.72 0-4.08 0s-2.71 0-4.07 0c-.6 0-.84-.12-.83-.78 0-2.6 0-5.2 0-7.79 0-.62.16-.82.8-.82h8.27s4.49 2 4.47 4.84a4.37 4.37 0 0 1 -4.56 4.55z"/><path d="m160.63 61a16.91 16.91 0 0 0 -20.74-12.88 16.37 16.37 0 0 0 -12.44 19.34c1.55 7.47 8.55 12.87 16.77 12.87a14.38 14.38 0 0 0 3-.25c8.96-1.47 15.2-10.38 13.41-19.08zm-16.69 12.37a9.37 9.37 0 0 1 .06-18.74 9.28 9.28 0 0 1 9.3 9.37 9.39 9.39 0 0 1 -9.36 9.37z"/><path d="m74.68 60.28a16.94 16.94 0 0 0 -20.56-12.22c-7.22 1.78-12.5 7.94-12.81 14.94-.42 9.66 7.07 17.36 17.15 17.36a14.23 14.23 0 0 0 2.83-.23 16.41 16.41 0 0 0 13.39-19.85zm-16.44 13.09a9.31 9.31 0 0 1 -9.3-9.37 9.27 9.27 0 1 1 18.53 0 9.32 9.32 0 0 1 -9.23 9.37z"/><path d="m17 5.3c0 2.78-1.94 4.62-4.84 4.62h-3.82v5.68h-1.52v-14.8h5.38c2.92 0 4.8 1.8 4.8 4.5zm-1.58.06a3.19 3.19 0 0 0 -3.42-3.3h-3.66v6.6h3.66a3.18 3.18 0 0 0 3.46-3.3z"/><path d="m18.46 10.32a5.17 5.17 0 0 1 5.42-5.5 5.14 5.14 0 0 1 5.38 5.5 5.14 5.14 0 0 1 -5.38 5.48 5.16 5.16 0 0 1 -5.42-5.48zm9.28 0c0-2.56-1.54-4.24-3.86-4.24s-3.88 1.68-3.88 4.24 1.56 4.24 3.9 4.24 3.84-1.7 3.84-4.24z"/><path d="m48 5-4.14 10.6h-1.46l-3.26-8.92-3.28 8.92h-1.46l-4.12-10.6h1.58l3.34 8.92 3.3-8.92h1.26l3.24 8.94 3.38-8.94z"/><path d="m59 10.84h-8.44c.18 2.3 1.42 3.8 3.52 3.8a4.21 4.21 0 0 0 3.42-1.8l1.1.62a5.27 5.27 0 0 1 -4.52 2.34c-3 0-5.06-2.2-5.06-5.5s2-5.48 5-5.48 4.98 2.18 4.98 5.36zm-8.44-1h7c-.16-2.38-1.48-3.84-3.56-3.84s-3.3 1.46-3.44 3.82z"/><path d="m67.14 4.82-.14 1.32c-2.56 0-4 1.3-4 3.32v6.14h-1.48v-10.6h1.4v1.78c.78-1.3 2.2-1.96 4.22-1.96z"/><path d="m77.52 10.84h-8.44c.18 2.3 1.42 3.8 3.52 3.8a4.21 4.21 0 0 0 3.4-1.8l1.1.62a5.27 5.27 0 0 1 -4.5 2.34c-3 0-5.06-2.2-5.06-5.5s2-5.48 5-5.48 5 2.14 5 5.36c0 .18 0 .5-.02.66zm-8.44-1h7c-.16-2.38-1.48-3.84-3.52-3.84s-3.34 1.46-3.48 3.82z"/><path d="m90.08 0v15.6h-1.4v-2.28a4.37 4.37 0 0 1 -4.22 2.48c-3 0-5.08-2.18-5.08-5.46s2.12-5.52 5.08-5.52a4.37 4.37 0 0 1 4.18 2.48v-7.3zm-1.44 10.32c0-2.54-1.56-4.24-3.88-4.24s-3.9 1.7-3.9 4.26 1.56 4.22 3.9 4.22 3.88-1.7 3.88-4.24z"/><path d="m109.38 10.34c0 3.28-2.1 5.46-5.06 5.46a4.37 4.37 0 0 1 -4.22-2.48v2.28h-1.4v-15.6h1.44v7.3a4.37 4.37 0 0 1 4.22-2.48c2.92 0 5.02 2.18 5.02 5.52zm-1.5 0c0-2.56-1.56-4.26-3.9-4.26s-3.88 1.7-3.88 4.24 1.56 4.24 3.88 4.24 3.9-1.7 3.9-4.22z"/><path d="m111.38 20 .16-1.18a2.06 2.06 0 0 0 .9.18c.9 0 1.28-.6 1.7-1.5l.94-2-4.74-10.5h1.58l3.92 8.86 3.8-8.86h1.58l-5.66 12.64c-.66 1.54-1.32 2.54-2.9 2.54a3.18 3.18 0 0 1 -1.28-.18z"/></g></svg>