<svg enable-background="new 0 0 422.4 127.2" viewBox="0 0 422.4 127.2" xmlns="http://www.w3.org/2000/svg"><path d="m402.7 88.2c0 1.3-.1 2.6-.3 3.9-.4 2.6-2.5 4.7-5.2 4.9-8.5 1.2-16.9 2.4-25.4 3.6-12 1.8-24.1 3.8-36 6.1-6.8 1.3-13.6 2.6-20.3 4.6-2 .6-3.2 0-3.8-1.4-.6-1.6.1-3.3 1.6-4.1 3-1.7 6.3-2.9 9.7-3.8 15.1-4.4 30.5-7.6 45.8-11 9.8-2.2 19.7-4.6 29.5-6.8.8-.2 1.6-.4 2.5-.3 1-.1 1.8.6 1.9 1.6v.4z" fill="#ffd500"/><path d="m201.4 80c-2.7 0-5.1 0-7.6 0-.6 0-.9-.3-1.2-.8-1.9-2.9-3.9-5.8-5.8-8.8-.3-.6-1-1-1.6-.9-1.6.1-3.1.1-4.7 0-.9 0-1.2.2-1.1 1.1.1 2.8 0 5.5 0 8.3 0 .8-.2 1.1-1.1 1.1-1.6-.1-3.1-.1-4.7 0-1.1.1-1.2-.4-1.2-1.3 0-7.3 0-14.5 0-21.8 0-2.6 0-5.3 0-7.9 0-.7.1-.9.9-.9h17.6c5.3.2 9.5 4.5 9.6 9.8.2 5.5-1.6 8.5-6.4 11 1.2 1.8 2.4 3.7 3.6 5.5z" fill="#1b2d65"/><path d="m115.7 64v14.9c0 .9-.2 1.2-1.1 1.1-1.6-.1-3.3 0-4.9 0-.7 0-.9-.2-.9-1 0-3.6 0-7.3 0-10.9 0-.8-.2-1.1-1-1.1-4.4 0-8.8.1-13.2 0-1 0-1.2.3-1.2 1.2v10.4c0 1.1-.3 1.3-1.3 1.3-1.5-.1-3-.1-4.4 0-1 .1-1.2-.3-1.2-1.2 0-8.1 0-16.2 0-24.3 0-1.8 0-3.6 0-5.4 0-.7.2-1 .9-1 1.7.1 3.3.1 5 0 .8 0 1 .2 1 1 0 3.4 0 6.9-.1 10.3 0 1.2.4 1.4 1.4 1.3 4.2-.1 8.4-.1 12.6 0 1 0 1.4-.2 1.4-1.3-.1-3.4 0-6.9 0-10.3 0-.8.2-1 1-1 1.6.1 3.3.1 4.9 0 .8 0 1.1.2 1.1 1z" fill="#1b2d65"/><path d="m16.9 80.3c-8.3 0-15.4-5.7-16.7-13.5-1.5-8.4 3.7-16.5 11.9-18.6 6.9-1.8 12.9 0 17.7 5.2.7.8.6 1.2-.3 1.6-1.5.8-3 1.6-4.5 2.6-.7.5-1.1.3-1.7-.3-2.9-3-7.6-3.7-11.2-1.5-4.5 2.6-6 8.4-3.4 12.8 1.7 2.9 4.7 4.7 8.1 4.7 2.4 0 4.8-1 6.4-2.7.3-.5.9-.7 1.3-.4.1.1.2.1.3.2 1.6 1 3.1 1.9 4.8 2.7.8.4.7.7.2 1.3-3.1 3.8-7.9 6-12.9 5.9z" fill="#1b2d65"/><path d="m225.5 48.1h12.1c.8 0 1.1.2 1.1 1.1-.1 1.4-.1 2.8 0 4.2 0 .8-.2 1.1-1 1.1-2.5-.1-5 0-7.4 0-1 0-1.3.2-1.3 1.2.1 7.7 0 15.4.1 23.1 0 1-.2 1.3-1.2 1.3-1.6-.1-3.1-.1-4.7 0-.9 0-1.1-.2-1.1-1.1 0-7.8 0-15.5 0-23.2 0-1-.2-1.3-1.2-1.2-2.5.1-5 0-7.6 0-.6 0-.9-.1-.9-.8.1-1.5.1-3 0-4.5 0-.8.2-.9.9-.9 4.1-.2 8.1-.3 12.2-.3z" fill="#1b2d65"/><path d="m422.1 63.7c-.3-.8-1.1-1.2-1.9-1.2-1.4 0-2.7.3-4 .9-5.2 2.2-10.8 3.6-16.4 4.1-3.8.5-7.7.4-11.5-.2-.8-.1-1.1-.3-.8-1.3 2-6.1 2.6-12.4.6-18.6-1.6-5.1-4.3-9.8-9.3-12.1-7.5-3.5-14.6-2.1-21 2.8-3.9 2.9-5.2 7-4.1 11.7.2.7.1 1.4-.4 2-6.5 8-14.1 14.9-22.7 20.5-3.1 2-6.3 3.9-9.7 5.5.2-.6.4-1 .5-1.3 1.8-4.7 3.6-9.5 5.1-14.3 1.3-4.1 2.8-8.3 2.9-12.7.1-3.3-2.1-5.7-5.1-5.3-1.4.2-2.8.5-4.2.9-3.7 1-6.6 3.9-7.7 7.5-1.5 4.9-3.1 9.7-4.6 14.6-.2.6-.5 1.2-1 1.6-3.4 3.2-7.7 5.3-12.3 5.9-8.6 1.1-15.3-2.6-19-9.2-2.3-4.3-3.3-9.1-3-13.9.4-7.3 2.6-14.5 6.6-20.6 5.1-8.3 11.6-15.2 20.6-19.6 3.7-2 7.8-2.9 12-2.8 1.6.1 2.1.7 2.3 2.3.1 1.8-.3 3.7-1 5.4-2.5 6.2-6.1 11.6-12.1 15-1.6.9-3.3 1.6-5 2.2-1.5.3-2.5 1.8-2.2 3.3v.2c.3 1.9 1.7 3.4 3.6 3.8 1.7.5 3.4.5 5.1.1 11.2-2.4 19-9 22.8-19.8 3.5-9.8-2.5-19-12.7-20.7-6-.9-12.1-.1-17.6 2.3-15 6.1-26.5 16.2-33.9 30.7-4.3 8.5-5.8 17.3-3.6 26.7 3.5 15.2 18.2 26 36.2 23.6 3-.4 5.9-1.2 8.7-2.3-.6 1.2-1.1 2.1-1.6 3-.3.8-1 1.4-1.9 1.5-7.9 2-16.1 3.1-24.3 3.4-9.1.4-18.2.7-27.3 1.5-4 .2-7.9 1.4-11.4 3.3-4.4 2.5-6.1 6.4-5.1 11.3 1.3 8 6.7 14.8 14.3 17.9 9.1 4 18.7 4.6 28.3 2.8 12.7-2.4 22.8-9.1 31-19 4.7-5.7 8.7-12.1 11.8-18.9.6-1.4 1.7-2.6 3.1-3.3 8.6-4.4 16.7-10 23.8-16.6 1-1 2-2 3.1-3.2-.2 1.5-.3 3.1-.3 4.7.3 5.7 2.3 10.5 7.4 13.6 4.9 2.9 10.1 2.9 15.4 1.6 5.7-1.4 10.7-4.9 14-9.8.4-.8 1.3-1.2 2.1-.9 1.6.3 3.2.5 4.9.6 10.6 1.1 21.3-1.5 30.2-7.3.8-.5 1.5-1.2 2.1-1.9.6-.5.6-1.3.2-2zm-130.2 35.2c-7.1 6.6-16.4 10.4-26 10.5-4.4.1-8.7.2-13-1-2.6-.7-5.1-2-7.2-3.7-2-1.8-1.8-3.7.6-4.9 2.8-1.2 5.7-1.7 8.8-1.7 9.7-.3 19.5-1.1 29.1-2.4 4-.6 7.9-1.5 11.7-2.7.4-.1.9-.3 1.6-.5-1.6 2.4-3.5 4.5-5.6 6.4zm81-27.1c-1.6 2.3-3.8 4-6.4 5-2.5.9-4.3-.1-5-2.7-.8-3.5-.2-6.9 1-10.5 2.3 2.2 4.9 4.1 7.7 5.8.8.5 1.7 1 2.5 1.4.5.3.6.5.2 1zm4.5-10.2c-.1.2-.1.3-.2.5-3.8-3-6.6-7.1-8.1-11.7-.8-2-1.2-4.1-1-6.2.3-2 1.1-2.5 2.9-1.6 1.9.9 3.4 2.4 4.4 4.3 2.3 4.6 3 9.7 2 14.7z" fill="#ffd400"/><path d="m184.3 64c-1.4 0-2.7 0-4.1 0-.6 0-.8-.1-.8-.8 0-2.6 0-5.2 0-7.8 0-.6.2-.8.8-.8h8.3s4.5 2 4.5 4.8c.1 2.4-1.8 4.4-4.2 4.5-.1 0-.2 0-.3 0-1.5.1-2.8.1-4.2.1z" fill="#fff"/><path d="m160.6 61c-1.9-9.1-10.9-15-20-13-.2 0-.5.1-.7.2-8.7 2-14.3 10.6-12.4 19.3 1.6 7.5 8.6 12.9 16.8 12.9 1 0 2-.1 3-.2 8.9-1.6 15.1-10.5 13.3-19.2zm-16.7 12.4c-5.2 0-9.4-4.2-9.3-9.4 0-5.2 4.2-9.4 9.4-9.3 5.1 0 9.3 4.1 9.3 9.3v.1c0 5.1-4.2 9.3-9.4 9.3z" fill="#1b2d65"/><path d="m74.7 60.3c-2.3-9-11.5-14.5-20.6-12.2-7.2 1.7-12.5 7.9-12.8 14.9-.4 9.7 7.1 17.4 17.1 17.4.9 0 1.9-.1 2.8-.2 8.9-1.4 15-9.9 13.6-18.8 0-.4 0-.8-.1-1.1zm-16.5 13.1c-5.1 0-9.3-4.2-9.3-9.3 0 0 0 0 0-.1-.2-5.1 3.8-9.4 9-9.6 5.1-.2 9.4 3.8 9.6 9v.6c0 5.1-4.1 9.3-9.3 9.4z" fill="#1b2d65"/><g fill="#1b2c65"><path d="m17 5.3c0 2.8-1.9 4.6-4.8 4.6h-3.9v5.7h-1.5v-14.8h5.4c2.9 0 4.8 1.8 4.8 4.5zm-1.6.1c.1-1.8-1.3-3.2-3.1-3.3-.1 0-.2 0-.4 0h-3.6v6.6h3.7c1.7.2 3.3-1.1 3.5-2.9 0-.2 0-.3-.1-.4z"/><path d="m18.5 10.3c-.2-2.8 2-5.3 4.8-5.5h.6c2.8-.1 5.2 2 5.4 4.9v.6c.2 2.8-1.9 5.3-4.8 5.5-.2 0-.4 0-.6 0-2.8.1-5.3-2-5.4-4.9-.1-.2-.1-.4 0-.6zm9.2 0c0-2.6-1.5-4.2-3.9-4.2s-3.8 1.7-3.8 4.2 1.6 4.2 3.9 4.2 3.8-1.6 3.8-4.2z"/><path d="m48 5-4.1 10.6h-1.5l-3.3-8.9-3.3 8.9h-1.5l-4-10.6h1.6l3.3 8.9 3.3-8.9h1.3l3.2 8.9 3.4-8.9z"/><path d="m59 10.8h-8.4c.2 2.3 1.4 3.8 3.5 3.8 1.4 0 2.6-.7 3.4-1.8l1.1.6c-1 1.5-2.7 2.4-4.5 2.3-3 0-5.1-2.2-5.1-5.5s2-5.5 5-5.5 5 2.2 5 5.4zm-8.4-1h7c-.2-2.3-1.5-3.8-3.6-3.8s-3.3 1.5-3.4 3.8z"/><path d="m67.1 4.8-.1 1.3c-2.6 0-4 1.3-4 3.3v6.1h-1.5v-10.5h1.4v1.8c.8-1.3 2.2-2 4.2-2z"/><path d="m77.5 10.8h-8.4c.2 2.3 1.4 3.8 3.5 3.8 1.4 0 2.6-.7 3.4-1.8l1.1.6c-1 1.5-2.7 2.4-4.5 2.3-3 0-5.1-2.2-5.1-5.5s2-5.5 5-5.5 5 2.1 5 5.4zm-8.4-1h7c-.2-2.3-1.5-3.8-3.5-3.8s-3.4 1.5-3.5 3.8z"/><path d="m90.1 0v15.6h-1.4v-2.3c-.8 1.6-2.4 2.6-4.2 2.5-3 0-5.1-2.2-5.1-5.5s2.1-5.5 5.1-5.5c1.8-.1 3.4.9 4.2 2.5v-7.3zm-1.5 10.3c0-2.5-1.6-4.2-3.9-4.2s-3.9 1.7-3.9 4.3 1.6 4.2 3.9 4.2 3.9-1.7 3.9-4.3z"/><path d="m109.4 10.3c0 3.3-2.1 5.5-5.1 5.5-1.8.1-3.5-.9-4.2-2.5v2.3h-1.4v-15.6h1.4v7.3c.8-1.6 2.4-2.6 4.2-2.5 3 0 5.1 2.2 5.1 5.5zm-1.5 0c0-2.6-1.6-4.3-3.9-4.3s-3.9 1.7-3.9 4.2 1.6 4.2 3.9 4.2 3.9-1.5 3.9-4.1z"/><path d="m111.4 20 .2-1.2c.3.1.6.2.9.2.9 0 1.3-.6 1.7-1.5l.9-2-4.8-10.5h1.6l3.9 8.9 3.8-8.9h1.6l-5.7 12.6c-.7 1.5-1.3 2.5-2.9 2.5-.4.1-.8 0-1.2-.1z"/></g></svg>