<svg height="136.9664" viewBox="0 0 442.3372 136.9664" width="442.3372" xmlns="http://www.w3.org/2000/svg"><path d="m320.8306 87.7039a37.1375 37.1375 0 0 1 -8.6653 2.3513c-18.0346 2.4414-32.7231-8.3882-36.2391-23.6036-2.1636-9.3624-.7325-18.2335 3.598-26.7126 7.4309-14.55 18.97-24.6131 33.9689-30.78a32.0319 32.0319 0 0 1 17.59-2.3409c10.2457 1.6733 16.1437 10.88 12.6958 20.7132-3.773 10.76-11.5593 17.3729-22.7533 19.8009a10.5085 10.5085 0 0 1 -5.1137-.13 4.815 4.815 0 0 1 -3.56-3.8216 2.79 2.79 0 0 1 2.0516-3.4439 32.9324 32.9324 0 0 0 5.0222-2.2418c5.9674-3.4409 9.5883-8.7614 12.086-15.0044a12.03 12.03 0 0 0 .981-5.3638c-.1128-1.6559-.6128-2.2086-2.2641-2.31a23.7168 23.7168 0 0 0 -12.0014 2.7769c-8.9046 4.362-15.4074 11.2871-20.5564 19.57a42.0173 42.0173 0 0 0 -6.603 20.652 26.1829 26.1829 0 0 0 3.0338 13.8859c3.6558 6.6522 10.364 10.3458 18.9922 9.2363a22.7047 22.7047 0 0 0 12.3362-5.9207 3.3783 3.3783 0 0 0 1.0176-1.5721c1.53-4.871 3.0988-9.73 4.6255-14.6018a11.1187 11.1187 0 0 1 7.7324-7.5324 23.4461 23.4461 0 0 1 4.2109-.9c2.9919-.3878 5.2291 1.98 5.122 5.3361-.1409 4.4157-1.5685 8.5358-2.888 12.6778-1.5387 4.8295-3.3329 9.569-5.1538 14.298-.1371.3558-.2733.7119-.4989 1.3a81.9943 81.9943 0 0 0 9.6657-5.4689 100.03 100.03 0 0 0 22.6533-20.5314 1.993 1.993 0 0 0 .4349-1.9448c-1.1015-4.7326.1743-8.7767 4.0617-11.7136 6.4445-4.8687 13.5615-6.276 21.0364-2.7831 5.0431 2.3565 7.6852 6.9824 9.3271 12.1032 1.9991 6.2345 1.4361 12.4642-.5872 18.592-.3228.9776-.0055 1.1372.7905 1.2765a42.33 42.33 0 0 0 11.4647.1717 53.1458 53.1458 0 0 0 16.4262-4.1145 9.5942 9.5942 0 0 1 3.9452-.9088 1.9969 1.9969 0 0 1 1.8746 1.2393 1.9508 1.9508 0 0 1 -.134 2.1487 7.16 7.16 0 0 1 -2.1166 1.9241 46.1745 46.1745 0 0 1 -30.254 7.3369 40.7307 40.7307 0 0 1 -4.8661-.6347 1.7842 1.7842 0 0 0 -2.1542.8992 23.6876 23.6876 0 0 1 -13.9893 9.84c-5.3234 1.3407-10.5248 1.3456-15.4091-1.5964-5.1127-3.08-7.13-7.85-7.4055-13.5728a32.3849 32.3849 0 0 1 .3166-4.66c-1.1541 1.1571-2.1236 2.1851-3.1517 3.1509a108.5289 108.5289 0 0 1 -23.841 16.582 6.5243 6.5243 0 0 0 -3.0793 3.259 83.3869 83.3869 0 0 1 -11.7487 18.855c-8.2067 9.8633-18.3727 16.5812-31.0439 18.9938-9.6408 1.8355-19.2274 1.2721-28.306-2.7784a23.4609 23.4609 0 0 1 -14.2224-17.91c-.942-4.9786.7644-8.8078 5.158-11.3484a27.12 27.12 0 0 1 11.4106-3.3066c9.0765-.7952 18.18-1.1284 27.278-1.5314a112.4255 112.4255 0 0 0 24.2744-3.369 2.52 2.52 0 0 0 1.84-1.4792c.4288-.9407.9516-1.8375 1.584-3.0391z" fill="#ffd400"/><path d="m421.2738 94.4674a19.0861 19.0861 0 0 1 -.2846 3.93 5.7825 5.7825 0 0 1 -5.1661 4.9259c-8.4528 1.2317-16.9156 2.3944-25.3672 3.634-12.0443 1.7666-24.054 3.748-35.9984 6.1022-6.811 1.3423-13.6338 2.6371-20.3064 4.606-1.97.5814-3.2553.0144-3.8453-1.4211a3.2345 3.2345 0 0 1 1.5758-4.086 38.57 38.57 0 0 1 9.679-3.7489c15.1117-4.3716 30.502-7.5868 45.8351-11.0434 9.8452-2.2195 19.666-4.5472 29.4987-6.8225a8.1815 8.1815 0 0 1 2.4836-.3315c1.3253.1043 1.8567.6645 1.8921 1.98.0204.7579.0037 1.5169.0037 2.2753z" fill="#ffd500"/><path d="m219.9826 86.2361c-2.6913 0-5.1229-.0256-7.5534.0171-.6476.0114-.9035-.3417-1.1978-.7873-1.9345-2.9294-3.9018-5.8373-5.81-8.7838a1.6522 1.6522 0 0 0 -1.6443-.8819c-1.5559.0643-3.1185.0691-4.674-.0005-.8757-.0391-1.1762.1789-1.154 1.1115.0654 2.7553-.0079 5.5136.042 8.27.0153.8448-.2391 1.1066-1.0793 1.0732a45.4428 45.4428 0 0 0 -4.6733.0074c-1.07.0679-1.2121-.361-1.2075-1.295.0364-7.2715.02-14.5432.02-21.8148 0-2.6369.0184-5.2741-.0129-7.9107-.0077-.6482.14-.8946.8472-.8913 5.8744.0274 11.75-.0488 17.6233.0357a9.9244 9.9244 0 0 1 9.5814 9.7543c.19 5.4587-1.5529 8.4791-6.435 11.0585q1.8184 2.742 3.6284 5.4708c1.1882 1.7898 2.3778 3.5782 3.6992 5.5668z" fill="#1b2d65"/><path d="m162.7691 86.5644c-8.2454 0-15.176-5.4-16.7678-12.9191a16.3692 16.3692 0 0 1 12.4347-19.338 16.9054 16.9054 0 0 1 20.7425 12.8761 16.4454 16.4454 0 0 1 -13.3792 19.1266 13.8133 13.8133 0 0 1 -3.0302.2544z" fill="#1b2d65"/><path d="m77.01 86.5644c-10.0823 0-17.5717-7.7016-17.1487-17.3575.3057-6.9807 5.5924-13.1323 12.813-14.9093a16.9263 16.9263 0 0 1 20.5512 12.216 16.4014 16.4014 0 0 1 -13.3848 19.8193 13.983 13.983 0 0 1 -2.8307.2315z" fill="#1b2d65"/><path d="m134.2277 70.2544c0 4.9568-.0232 9.9138.0216 14.87.008.8829-.185 1.1809-1.11 1.1346-1.6352-.0819-3.2785-.0565-4.9163-.0079-.7416.022-.9466-.2237-.94-.9539.0344-3.6374-.01-7.2755.0354-10.9126.01-.8206-.1742-1.0765-1.0374-1.0672-4.3977.047-8.7967.0584-13.1939-.0059-1.0187-.0149-1.1554.35-1.1442 1.2273.0442 3.4772-.0356 6.9566.0493 10.4323.0273 1.1148-.33 1.3449-1.3448 1.2867a38.9543 38.9543 0 0 0 -4.4357 0c-.97.055-1.1968-.2717-1.1926-1.2071.0358-8.1147.0206-16.23.0206-24.3443 0-1.7989.03-3.5984-.0146-5.3962-.0176-.7132.1653-.9869.9266-.9625 1.6776.0537 3.36.0586 5.0367-.0017.7931-.0285 1 .2194.99.9975-.041 3.4373.0388 6.8768-.0491 10.3123-.03 1.1626.3683 1.36 1.4106 1.3464q6.2963-.0814 12.5941 0c1.0329.0134 1.4267-.1724 1.3964-1.331-.09-3.4354-.01-6.875-.0489-10.3123-.0086-.7679.1762-1.0451.9877-1.0136 1.6369.0636 3.28.0661 4.9164-.0008.8282-.0338 1.07.1853 1.0624 1.0392-.0422 4.9569-.0203 9.9139-.0203 14.8707z" fill="#1b2d65"/><path d="m35.49 86.5644c-8.3222 0-15.3987-5.7125-16.7032-13.4842a16.2566 16.2566 0 0 1 11.9482-18.603c6.8856-1.78 12.8424-.0105 17.7293 5.2347.73.7838.5972 1.1544-.3006 1.6213-1.52.7905-3.0137 1.6422-4.4589 2.5618-.724.4607-1.0894.3491-1.6763-.2593a9.1373 9.1373 0 0 0 -11.2135-1.5521 9.39 9.39 0 0 0 4.6657 17.5152 8.8033 8.8033 0 0 0 6.44-2.7236 1.0426 1.0426 0 0 1 1.5872-.2113c1.5487.9813 3.1463 1.8932 4.7712 2.7432.7686.4021.6933.7023.2094 1.2766a17.0392 17.0392 0 0 1 -12.9985 5.8807z" fill="#1b2d65"/><path d="m244.0811 54.3648c4.0367 0 8.0736.0221 12.11-.0183.8278-.0083 1.1163.2067 1.0743 1.06-.0686 1.3951-.0662 2.7984 0 4.1938.0388.8229-.1822 1.0949-1.0445 1.074-2.4765-.06-4.9567.0261-7.4327-.0447-.9676-.0276-1.2737.1832-1.267 1.2193.0492 7.7116.01 15.4237.0482 23.1354.0048.96-.183 1.34-1.2267 1.2768a42.9609 42.9609 0 0 0 -4.6736-.0039c-.9133.044-1.1266-.2505-1.1224-1.1417.0366-7.7517 0-15.5038.0467-23.2553.0059-1-.2353-1.2646-1.2355-1.2331-2.5154.0791-5.0353.0058-7.5528.04-.65.0088-.908-.1308-.8825-.8407.0546-1.5165.06-3.038-.0016-4.5539-.03-.7491.1976-.9314.9309-.9249 4.0757.036 8.1526.0172 12.2292.0172z" fill="#1b2d65"/><path d="m316.0168 98.7416a32.8163 32.8163 0 0 1 -5.5235 6.3567 39.3494 39.3494 0 0 1 -26.0511 10.5349c-4.3553.1288-8.7043.2043-12.9618-.9814a18.2913 18.2913 0 0 1 -7.17-3.7073c-2.0282-1.7479-1.7876-3.7309.64-4.8959a22.0952 22.0952 0 0 1 8.7529-1.7117 273.0432 273.0432 0 0 0 29.0967-2.4209 76.7535 76.7535 0 0 0 11.6365-2.7136c.4462-.1414.8987-.2624 1.5803-.4608z" fill="#fff"/><path d="m395.713 68.347a25.0423 25.0423 0 0 1 -8.083-11.7009 13.3016 13.3016 0 0 1 -.9933-6.1925c.3085-2.03 1.0712-2.457 2.9362-1.5647a9.431 9.431 0 0 1 4.386 4.2715 23.0112 23.0112 0 0 1 1.9672 14.6757 2.7892 2.7892 0 0 1 -.2131.5109z" fill="#fff"/><path d="m381.0507 69.9064a43.3163 43.3163 0 0 0 7.6837 5.7547c.8277.48 1.6584.9593 2.5154 1.3827.5479.2708.57.5317.2187.9934a13.8154 13.8154 0 0 1 -6.4181 5.0017c-2.5236.8848-4.3311-.0915-4.9477-2.6736-.839-3.5134-.1649-6.8877.948-10.4589z" fill="#fff"/><path d="m202.8644 70.25c-1.3588 0-2.7182-.026-4.0759.0119-.598.0167-.8389-.1194-.8295-.7807.0369-2.5965.0329-5.1941.002-7.7907-.0074-.6186.1619-.8189.7988-.8112 2.7571.0334 5.5158-.0316 8.2719.0293 2.7814.0614 4.4934 1.9666 4.4685 4.8348a4.3735 4.3735 0 0 1 -4.56 4.503c-1.3581.0211-2.7171.0036-4.0758.0036z" fill="#fff"/><path d="m162.5578 60.864a9.288 9.288 0 0 1 9.2949 9.3754 9.3077 9.3077 0 1 1 -9.2949-9.3754z" fill="#fff"/><path d="m67.4858 70.1967a9.2688 9.2688 0 1 1 18.5368.0374 9.2692 9.2692 0 1 1 -18.5368-.0374z" fill="#fff"/><path d="m35.5929 11.536c0 2.7808-1.94 4.6211-4.8413 4.6211h-3.8608v5.6811h-1.52v-14.8032h5.3808c2.9209 0 4.8413 1.8003 4.8413 4.501zm-1.5805.06a3.1944 3.1944 0 0 0 -3.46-3.3008h-3.6616v6.6015h3.6611a3.1841 3.1841 0 0 0 3.4605-3.3006z" fill="#fff"/><path d="m37.0109 16.557a5.1658 5.1658 0 0 1 5.4209-5.501 5.1457 5.1457 0 0 1 5.3814 5.501 5.1405 5.1405 0 0 1 -5.3814 5.4814 5.1607 5.1607 0 0 1 -5.4209-5.4814zm9.2817 0c0-2.5606-1.5405-4.2407-3.8608-4.2407-2.34 0-3.9009 1.68-3.9009 4.2407 0 2.5405 1.5606 4.2412 3.9009 4.2412 2.3203 0 3.8608-1.7007 3.8608-4.2412z" fill="#fff"/><path d="m66.5339 11.2562-4.1211 10.582h-1.46l-3.2607-8.9218-3.2808 8.9218h-1.46l-4.1213-10.582h1.58l3.3408 8.9219 3.3008-8.9219h1.26l3.2807 8.9219 3.34-8.9219z" fill="#fff"/><path d="m77.5524 17.077h-8.4419c.18 2.3008 1.42 3.8008 3.521 3.8008a4.2081 4.2081 0 0 0 3.42-1.8l1.1006.62a5.2762 5.2762 0 0 1 -4.521 2.3408c-3.021 0-5.061-2.2006-5.061-5.5014 0-3.2808 2-5.481 5.021-5.481 2.98 0 4.9809 2.14 4.9809 5.3609.0004.1799.0004.5002-.0196.6599zm-8.4419-1.02h6.9614c-.12-2.36-1.44-3.8408-3.48-3.8408s-3.3412 1.4804-3.4814 3.8408z" fill="#fff"/><path d="m85.6916 11.056-.12 1.32c-2.5806 0-4.0611 1.3-4.0611 3.3208v6.1411h-1.4405v-10.5817h1.4l.02 1.78c.7607-1.32 2.1811-1.9802 4.2016-1.9802z" fill="#fff"/><path d="m96.0724 17.077h-8.4419c.18 2.3008 1.42 3.8008 3.521 3.8008a4.208 4.208 0 0 0 3.42-1.8l1.1006.62a5.2762 5.2762 0 0 1 -4.521 2.3408c-3.021 0-5.0615-2.2006-5.0615-5.5014 0-3.2808 2.0005-5.481 5.0215-5.481 2.98 0 4.9809 2.14 4.9809 5.3609.0004.1799.0004.5002-.0196.6599zm-8.4419-1.02h6.9615c-.12-2.36-1.44-3.8408-3.48-3.8408s-3.3413 1.4804-3.4815 3.8408z" fill="#fff"/><path d="m108.6325 6.2347v15.6035h-1.4l-.04-2.28a4.369 4.369 0 0 1 -4.2207 2.48c-2.961 0-5.0811-2.1806-5.0811-5.4614 0-3.3008 2.12-5.521 5.0811-5.521a4.3683 4.3683 0 0 1 4.2207 2.4805v-7.3016zm-1.44 10.3223c0-2.54-1.5606-4.2407-3.8809-4.2407-2.34 0-3.9009 1.7-3.9009 4.2607 0 2.52 1.5606 4.2212 3.9009 4.2212 2.3199 0 3.8805-1.7007 3.8805-4.2412z" fill="#fff"/><path d="m127.9323 16.577c0 3.2808-2.1006 5.4614-5.061 5.4614a4.3692 4.3692 0 0 1 -4.2212-2.48l-.04 2.28h-1.4v-15.6037h1.4399v7.3018a4.3685 4.3685 0 0 1 4.2212-2.4805c2.9605 0 5.0611 2.2202 5.0611 5.521zm-1.5005 0c0-2.5605-1.56-4.2607-3.9009-4.2607-2.32 0-3.8808 1.7-3.8808 4.2407s1.5605 4.2412 3.8808 4.2412c2.3404 0 3.9009-1.7007 3.9009-4.2212z" fill="#fff"/><path d="m129.93 26.1991.16-1.18a2.0618 2.0618 0 0 0 .9.18c.9 0 1.28-.6 1.7007-1.5005l.94-2-4.7407-10.4424h1.58l3.9209 8.8618 3.8008-8.8618h1.5805l-5.6616 12.6426c-.66 1.54-1.32 2.54-2.9 2.54a3.1762 3.1762 0 0 1 -1.2806-.2397z" fill="#fff"/><g fill="#333"><path d="m3.76 100.0414h2.8212v14.8027h-2.8212z"/><path d="m20.2023 108.0629v6.7812h-2.72v-6.3418a2.2843 2.2843 0 0 0 -2.52-2.32 2.2841 2.2841 0 0 0 -2.52 2.32v6.3418h-2.7223v-10.7822h2.621l.04 1.36a4.392 4.392 0 0 1 3.5205-1.5605 4.017 4.017 0 0 1 4.3008 4.2015z"/><path d="m29.5216 112.3431v2.2012a7.262 7.262 0 0 1 -2.7407.5 3.1819 3.1819 0 0 1 -3.32-3.4v-5.3613h-1.7809v-2.2207h1.7807v-3.1612h2.72v3.1612h3.1807v2.2207h-3.1806v4.8008a1.4687 1.4687 0 0 0 1.48 1.62 4.7208 4.7208 0 0 0 1.8608-.3607z"/><path d="m41.3224 110.4232h-7.8017a2.4654 2.4654 0 0 0 2.5805 2.4805 3.3476 3.3476 0 0 0 2.6407-1.28l2.1 1.06a5.5282 5.5282 0 0 1 -4.7011 2.36 5.2024 5.2024 0 0 1 -5.501-5.5215c0-3.4 2.14-5.6611 5.3809-5.6611a5.1028 5.1028 0 0 1 5.3813 5.4209 9.845 9.845 0 0 1 -.0796 1.1412zm-7.8017-1.8408h5.021c-.2-1.64-1.06-2.58-2.52-2.58-1.4405-.0001-2.2808.9403-2.501 2.58z"/><path d="m50.1017 103.8617-.18 2.501c-2.2408 0-3.7208 1.08-3.7208 2.7v5.7812h-2.7209v-10.782h2.6207l.04 1.44a4.8783 4.8783 0 0 1 3.961-1.6402z"/><path d="m62.1217 108.0629v6.7812h-2.72v-6.3418a2.5291 2.5291 0 0 0 -5.041 0v6.3418h-2.7207v-10.7822h2.62l.04 1.36a4.3919 4.3919 0 0 1 3.52-1.5605 4.017 4.017 0 0 1 4.3017 4.2015z"/><path d="m73.6418 108.0629v6.7812h-2.6206l-.06-1.54a3.856 3.856 0 0 1 -3.2808 1.74c-2.24 0-3.7407-1.3408-3.7407-3.3408 0-2.08 1.84-3.44 4.6011-3.44a12.7029 12.7029 0 0 1 2.38.2393v-.1992c0-1.44-.96-2.3008-2.6006-2.3008a3.807 3.807 0 0 0 -2.52.86l-1.18-1.6006a6.5621 6.5621 0 0 1 4.4009-1.4c2.7603-.0003 4.6207 1.6598 4.6207 4.2009zm-2.7207 2.28a10.793 10.793 0 0 0 -2.0406-.22c-1.28 0-2.1.6-2.1 1.52 0 .88.58 1.46 1.68 1.46a2.552 2.552 0 0 0 2.4606-2.7598z"/><path d="m82.9811 112.3431v2.2012a7.2623 7.2623 0 0 1 -2.7407.5 3.1819 3.1819 0 0 1 -3.32-3.4v-5.3613h-1.7811v-2.2207h1.7807v-3.1612h2.72v3.1612h3.181v2.2207h-3.181v4.8008a1.4687 1.4687 0 0 0 1.4805 1.62 4.7208 4.7208 0 0 0 1.8606-.3607z"/><path d="m84.5592 100.7015a1.5663 1.5663 0 0 1 1.6208-1.6215 1.55 1.55 0 0 1 1.6 1.6211 1.5331 1.5331 0 0 1 -1.6 1.6 1.55 1.55 0 0 1 -1.6208-1.5996zm.26 3.36h2.7208v10.7822h-2.72z"/><path d="m89.6794 109.4427c0-3.3408 2.32-5.581 5.7812-5.581 3.44 0 5.7612 2.24 5.7612 5.581a5.3774 5.3774 0 0 1 -5.7612 5.6016c-3.4606 0-5.7812-2.2402-5.7812-5.6016zm8.7216 0a2.9654 2.9654 0 1 0 -2.94 3.2608 2.94 2.94 0 0 0 2.94-3.2608z"/><path d="m113.8415 108.0629v6.7812h-2.72v-6.3418a2.5292 2.5292 0 0 0 -5.0411 0v6.3418h-2.7204v-10.7822h2.62l.04 1.36a4.392 4.392 0 0 1 3.52-1.5605 4.017 4.017 0 0 1 4.3015 4.2015z"/><path d="m125.3615 108.0629v6.7812h-2.6206l-.06-1.54a3.856 3.856 0 0 1 -3.2807 1.74c-2.24 0-3.7408-1.3408-3.7408-3.3408 0-2.08 1.84-3.44 4.6011-3.44a12.7021 12.7021 0 0 1 2.38.2393v-.1992c0-1.44-.96-2.3008-2.6006-2.3008a3.8072 3.8072 0 0 0 -2.52.86l-1.18-1.6006a6.5623 6.5623 0 0 1 4.4009-1.4c2.7603-.0003 4.6207 1.6598 4.6207 4.2009zm-2.7207 2.28a10.7929 10.7929 0 0 0 -2.04-.22c-1.28 0-2.1.6-2.1 1.52 0 .88.58 1.46 1.68 1.46a2.5519 2.5519 0 0 0 2.46-2.7598z"/><path d="m128.02 99.2406h2.72v15.6035h-2.72z"/><path d="m150.0216 104.8216c0 2.98-2.1005 4.9815-5.2812 4.9815h-3.0804v5.041h-2.821v-14.8027h6.0015c3.1206 0 5.1811 1.9199 5.1811 4.7802zm-2.9008.1006a2.4154 2.4154 0 0 0 -2.5806-2.541h-2.88v5.0811h2.88a2.3942 2.3942 0 0 0 2.5806-2.5401z"/><path d="m160.5407 108.0629v6.7812h-2.6207l-.06-1.54a3.856 3.856 0 0 1 -3.2807 1.74c-2.24 0-3.7408-1.3408-3.7408-3.3408 0-2.08 1.84-3.44 4.6011-3.44a12.7021 12.7021 0 0 1 2.38.2393v-.1992c0-1.44-.96-2.3008-2.6006-2.3008a3.8072 3.8072 0 0 0 -2.52.86l-1.18-1.6006a6.5623 6.5623 0 0 1 4.4009-1.4c2.7601-.0003 4.6208 1.6598 4.6208 4.2009zm-2.7207 2.28a10.7929 10.7929 0 0 0 -2.04-.22c-1.28 0-2.1.6-2.1 1.52 0 .88.58 1.46 1.68 1.46a2.5519 2.5519 0 0 0 2.46-2.7598z"/><path d="m162.8991 119.1449.28-2.2207a1.8854 1.8854 0 0 0 .86.1806c.88 0 1.24-.54 1.66-1.36l.5405-1.1406-4.6211-10.542h2.9805l3.0405 7.6015 2.8408-7.6015h2.96l-5.0803 12.0221c-.86 2.08-1.78 3.36-3.8608 3.36a4.0637 4.0637 0 0 1 -1.6001-.2994z"/><path d="m191.9225 108.0629v6.7812h-2.72v-6.3418a2.2133 2.2133 0 1 0 -4.4214 0v6.3418h-2.72v-6.3418a2.2131 2.2131 0 1 0 -4.4209 0v6.3418h-2.7207v-10.7822h2.6205l.04 1.28a3.933 3.933 0 0 1 3.2207-1.48 3.81 3.81 0 0 1 3.2607 1.62 4.1931 4.1931 0 0 1 3.48-1.62 4.0606 4.0606 0 0 1 4.3811 4.201z"/><path d="m204.6413 110.4232h-7.8013a2.4654 2.4654 0 0 0 2.5806 2.4805 3.3472 3.3472 0 0 0 2.6406-1.28l2.1006 1.06a5.5284 5.5284 0 0 1 -4.7012 2.36 5.2024 5.2024 0 0 1 -5.501-5.5215c0-3.4 2.14-5.6611 5.3809-5.6611a5.1029 5.1029 0 0 1 5.3814 5.4209 9.8672 9.8672 0 0 1 -.0806 1.1412zm-7.8018-1.8408h5.021c-.2-1.64-1.06-2.58-2.52-2.58-1.4405-.0001-2.2805.9403-2.5005 2.58z"/><path d="m217.2814 108.0629v6.7812h-2.72v-6.3418a2.5291 2.5291 0 0 0 -5.041 0v6.3418h-2.7204v-10.7822h2.62l.04 1.36a4.392 4.392 0 0 1 3.52-1.5605 4.017 4.017 0 0 1 4.3014 4.2015z"/><path d="m226.6012 112.3431v2.2012a7.262 7.262 0 0 1 -2.7407.5 3.1819 3.1819 0 0 1 -3.32-3.4v-5.3613h-1.7808v-2.2207h1.7803v-3.1612h2.72v3.1612h3.1807v2.2207h-3.1807v4.8008a1.4687 1.4687 0 0 0 1.4805 1.62 4.7208 4.7208 0 0 0 1.8607-.3607z"/><path d="m227.9191 113.764 1.0205-1.6406a5.8825 5.8825 0 0 0 3.1006.8c1 0 1.6807-.42 1.6807-1.08s-.7608-1.02-1.8409-1.3l-.9-.24c-1.82-.4805-3.0606-1.1807-3.0606-2.8809 0-2.1406 1.6807-3.5605 4.2412-3.5605a7.13 7.13 0 0 1 4.0606 1.0605l-1.1407 1.78a5.528 5.528 0 0 0 -2.74-.7c-.9805 0-1.66.36-1.66.98 0 .64.68.9394 1.62 1.18l.9.2607c1.8408.48 3.3007 1.3193 3.3007 3.2207 0 2.04-1.8007 3.4-4.5009 3.4a6.1541 6.1541 0 0 1 -4.0812-1.2799z"/></g></svg>