<svg viewBox="0 0 179.78 24.01" xmlns="http://www.w3.org/2000/svg"><g fill="#fff"><path d="m175.29 13.3-1.56-4.17-1.59 4.17zm.61 1.61h-4.39l-.65 1.65a1.53 1.53 0 0 0 -.13.54c0 .25.15.42.47.52v.27h-3.2v-.27a.85.85 0 0 0 .43-.24 2.49 2.49 0 0 0 .34-.67l3.55-9a2.12 2.12 0 0 0 .18-.71.6.6 0 0 0 -.41-.57v-.24h3.42v.27a.53.53 0 0 0 -.42.51 1.53 1.53 0 0 0 .13.57l3.68 9a3 3 0 0 0 .41.78.86.86 0 0 0 .47.28v.27h-3.54v-.27a.5.5 0 0 0 .46-.53 1.43 1.43 0 0 0 -.14-.53l-.66-1.65zm-11.66 2.09v-9.92a.63.63 0 0 0 -.1-.39.69.69 0 0 0 -.35-.23v-.27h3v.27a.68.68 0 0 0 -.35.22.68.68 0 0 0 -.1.4v9.92a.67.67 0 0 0 .1.41.64.64 0 0 0 .35.22v.27h-3v-.27a.68.68 0 0 0 .35-.22.67.67 0 0 0 .1-.41zm-8.84-1h5.93a.49.49 0 0 0 .33-.12 1.17 1.17 0 0 0 .18-.43h.23v3h-.23a1 1 0 0 0 -.18-.42.45.45 0 0 0 -.33-.13h-8.49v-.27a.68.68 0 0 0 .35-.22.67.67 0 0 0 .1-.41v-9.91a.64.64 0 0 0 -.1-.4.69.69 0 0 0 -.35-.23v-.27h3v.27a.73.73 0 0 0 -.35.22.69.69 0 0 0 -.1.41v8.91zm-8.77-2.67-1.57-4.17-1.59 4.17zm.6 1.61h-4.38l-.65 1.65a1.59 1.59 0 0 0 -.14.54c0 .25.16.42.48.52v.27h-3.2v-.27a.89.89 0 0 0 .44-.24 2.54 2.54 0 0 0 .33-.67l3.55-9a2.12 2.12 0 0 0 .17-.69.6.6 0 0 0 -.41-.57v-.29h3.42v.27a.53.53 0 0 0 -.42.51 1.57 1.57 0 0 0 .14.57l3.67 9a3.7 3.7 0 0 0 .41.78.89.89 0 0 0 .48.28v.27h-3.55v-.27a.51.51 0 0 0 .47-.53 1.49 1.49 0 0 0 -.15-.53l-.66-1.65zm-17.06-3.72h3.25a7.35 7.35 0 0 0 1 0 1.55 1.55 0 0 0 .55-.22 1.39 1.39 0 0 0 .54-1.27 1.41 1.41 0 0 0 -.51-1.35 1.58 1.58 0 0 0 -.54-.22 7.93 7.93 0 0 0 -1 0h-3.25v3.07zm0 1.93v3.85a.66.66 0 0 0 .1.4.61.61 0 0 0 .35.22v.27h-3v-.27a.73.73 0 0 0 .35-.22.66.66 0 0 0 .1-.4v-9.91a.64.64 0 0 0 -.1-.4.74.74 0 0 0 -.35-.23v-.27h6a8 8 0 0 1 1.75.15 2.89 2.89 0 0 1 1.13.54 2.71 2.71 0 0 1 .83 1.21 4.56 4.56 0 0 1 .26 1.58 3 3 0 0 1 -2.59 3.33l1.88 3.24a6.82 6.82 0 0 0 .72 1.09.85.85 0 0 0 .56.27v.27h-3.49v-.27c.24-.05.36-.15.36-.31a2.38 2.38 0 0 0 -.33-.74l-1.95-3.45zm-7.78-5v8.85a.67.67 0 0 0 .1.41.68.68 0 0 0 .35.22v.27h-3v-.27a.68.68 0 0 0 .35-.22.67.67 0 0 0 .1-.41v-8.88h-3a.43.43 0 0 0 -.33.12.92.92 0 0 0 -.18.42h-.23v-3h.23a1 1 0 0 0 .19.44.39.39 0 0 0 .32.12h8.09a.45.45 0 0 0 .33-.12 1.09 1.09 0 0 0 .18-.44h.23v3h-.23a.92.92 0 0 0 -.18-.42.45.45 0 0 0 -.33-.12zm-7.19-.94-1.15 2.75-.2-.14a.76.76 0 0 0 0-.14.9.9 0 0 0 -.41-.62 4.42 4.42 0 0 0 -3-1.06 3.58 3.58 0 0 0 -1.32.22 1.52 1.52 0 0 0 -.68.51 1.24 1.24 0 0 0 -.26.75.9.9 0 0 0 .66.9 8.42 8.42 0 0 0 1.46.26l1.11.13a7.84 7.84 0 0 1 1.6.36 3.31 3.31 0 0 1 1.08.62 2.92 2.92 0 0 1 .76 1.11 3.72 3.72 0 0 1 .28 1.46 3.78 3.78 0 0 1 -.66 2.2 3.46 3.46 0 0 1 -1.84 1.29 6.21 6.21 0 0 1 -2 .32 7.22 7.22 0 0 1 -3.72-1.13 1.67 1.67 0 0 0 -.47-.22c-.06 0-.16.06-.29.19l-.21-.13 1.06-2.84.2.12v.11a1 1 0 0 0 .3.71 3.68 3.68 0 0 0 1.43.86 5.12 5.12 0 0 0 1.82.36 3.11 3.11 0 0 0 1.6-.39 1.61 1.61 0 0 0 .59-.57 1.42 1.42 0 0 0 .22-.74.87.87 0 0 0 -.52-.83 6 6 0 0 0 -1.45-.32l-1.09-.13a12.9 12.9 0 0 1 -1.55-.26 3.6 3.6 0 0 1 -.9-.41 2.54 2.54 0 0 1 -1-1.15 3.55 3.55 0 0 1 -.34-1.6 3.57 3.57 0 0 1 .85-2.45 4.11 4.11 0 0 1 3.28-1.31 6.27 6.27 0 0 1 1.72.23 11.15 11.15 0 0 1 2 .84 2 2 0 0 0 .5.2.58.58 0 0 0 .35-.2l.19.13zm-10.38-.09v6.56a5.55 5.55 0 0 1 -.56 2.79c-.68 1.11-2.08 1.66-4.21 1.66a5.86 5.86 0 0 1 -3.52-.9 2.71 2.71 0 0 1 -1-1.42 7.85 7.85 0 0 1 -.26-2.13v-6.59a.71.71 0 0 0 -.1-.4.77.77 0 0 0 -.36-.23v-.27h3v.27a.77.77 0 0 0 -.36.22.77.77 0 0 0 -.1.41v5.84a8.91 8.91 0 0 0 .09 1.49 1.77 1.77 0 0 0 .35.81 3.5 3.5 0 0 0 4.64 0 1.76 1.76 0 0 0 .34-.81 8.91 8.91 0 0 0 .09-1.49v-5.84a.72.72 0 0 0 -.09-.4.77.77 0 0 0 -.36-.23v-.27h2.84v.27a.79.79 0 0 0 -.35.23.64.64 0 0 0 -.1.4zm-14.51 6.18-1.57-4.17-1.58 4.17zm.61 1.61h-4.39l-.65 1.65a1.53 1.53 0 0 0 -.13.54c0 .25.15.42.47.52v.27h-3.22v-.27a.85.85 0 0 0 .43-.24 2.49 2.49 0 0 0 .34-.67l3.55-9a2.06 2.06 0 0 0 .19-.71.59.59 0 0 0 -.41-.57v-.24h3.43v.27a.53.53 0 0 0 -.42.51 1.53 1.53 0 0 0 .13.57l3.68 9a3 3 0 0 0 .41.78.86.86 0 0 0 .47.28v.27h-3.54v-.27a.5.5 0 0 0 .46-.53 1.43 1.43 0 0 0 -.14-.53z"/><path d="m32.42 12a6.79 6.79 0 0 0 .85 3.66 2.74 2.74 0 0 0 4.68 0 6.7 6.7 0 0 0 .85-3.66 6.73 6.73 0 0 0 -.8-3.64 2.66 2.66 0 0 0 -2.39-1.36 2.63 2.63 0 0 0 -2.34 1.32 6.73 6.73 0 0 0 -.85 3.68zm3.19-6.5a9 9 0 0 1 2.76.42 6.69 6.69 0 0 1 2.28 1.2 6.25 6.25 0 0 1 1.75 2.17 6.35 6.35 0 0 1 .6 2.71 6.16 6.16 0 0 1 -.6 2.72 6.39 6.39 0 0 1 -1.74 2.16 7.27 7.27 0 0 1 -2.28 1.2 9 9 0 0 1 -2.76.42 8.76 8.76 0 0 1 -2.76-.43 7.25 7.25 0 0 1 -2.28-1.19 6.32 6.32 0 0 1 -1.74-2.18 6.21 6.21 0 0 1 -.6-2.7 6.11 6.11 0 0 1 2.33-4.9 6.88 6.88 0 0 1 2.27-1.18 9.07 9.07 0 0 1 2.77-.42zm10.09 9.55a3.68 3.68 0 0 0 1.07 1.39 2.27 2.27 0 0 0 1.4.49 2 2 0 0 0 1.3-.42 1.33 1.33 0 0 0 .53-1.06 1.37 1.37 0 0 0 -.38-.93 4.27 4.27 0 0 0 -1.26-.84l-.55-.27a17.55 17.55 0 0 1 -2.27-1.21 4.13 4.13 0 0 1 -1.14-1.2 3 3 0 0 1 -.33-1.44 3.67 3.67 0 0 1 1.35-2.96 5.21 5.21 0 0 1 3.5-1.14 5.5 5.5 0 0 1 2.66.62 4.41 4.41 0 0 1 1.79 1.79l-1.58 1a3.38 3.38 0 0 0 -1-1.34 2.61 2.61 0 0 0 -1.53-.45 1.85 1.85 0 0 0 -1.26.39 1.31 1.31 0 0 0 -.48 1 1.25 1.25 0 0 0 .4.91 6 6 0 0 0 1.54.92l.26.12a18.17 18.17 0 0 1 2.57 1.28 3.69 3.69 0 0 1 1.1 1.2 3 3 0 0 1 .34 1.47 3.68 3.68 0 0 1 -1.43 3 5.72 5.72 0 0 1 -3.71 1.16 6.17 6.17 0 0 1 -2.88-.64 4.45 4.45 0 0 1 -1.91-1.83l1.91-1zm17.69-4v-5.3h3.9v12.47h-3.9v-5.47h-4.16v5.47h-3.89v-12.47h3.89v5.33zm19.22 4.1a5.9 5.9 0 0 1 -2.48 2.49 8.07 8.07 0 0 1 -3.82.86 9.14 9.14 0 0 1 -2.63-.36 6.9 6.9 0 0 1 -2.19-1.08 6.36 6.36 0 0 1 -1.94-2.19 6 6 0 0 1 -.65-2.79 6.09 6.09 0 0 1 2.1-4.74 7.93 7.93 0 0 1 5.44-1.86 7.63 7.63 0 0 1 3.32.68 6.54 6.54 0 0 1 2.46 2.13l-1.75 1.16a4.79 4.79 0 0 0 -1.55-1.82 3.73 3.73 0 0 0 -2.09-.63 3.29 3.29 0 0 0 -2.78 1.3 6 6 0 0 0 -1 3.68 5.3 5.3 0 0 0 1.13 3.53 3.7 3.7 0 0 0 3 1.35 3.59 3.59 0 0 0 2.12-.68 5.63 5.63 0 0 0 1.67-2z"/><path d="m0 0h24v24h-24zm15.56 7.91v-4.21a.45.45 0 0 0 -.4-.48h-6.32a.45.45 0 0 0 -.39.48v4.75h-4.75a.45.45 0 0 0 -.48.39v6.33a.45.45 0 0 0 .48.39h4.75v4.75a.45.45 0 0 0 .39.48h6.32a.45.45 0 0 0 .4-.48v-4.75h4.75a.45.45 0 0 0 .48-.39v-6.33a.45.45 0 0 0 -.48-.39h-3.16l-5.15 5.95-.66.77-.68-.75-2.58-3.15.52-1.81 2.71 3 8.45-7a44.37 44.37 0 0 0 -4.2 2.45z" fill-rule="evenodd"/></g></svg>